<svg width="52" height="54" viewBox="0 0 52 54" fill="none" xmlns="http://www.w3.org/2000/svg">
<mask id="mask0_199_39" style="mask-type:luminance" maskUnits="userSpaceOnUse" x="0" y="0" width="52" height="54">
<path fill-rule="evenodd" clip-rule="evenodd" d="M48.4384 21.5744V39.758L36.958 46.3872H36.953L25.4781 53.011L14.0028 46.3872H13.9977L2.51728 39.758V21.5441C3.19307 21.769 3.91622 21.8912 4.66759 21.8912C4.82599 21.8912 4.98267 21.8847 5.13858 21.8739V38.029L9.61522 36.1952C9.55402 35.9779 9.52148 35.7487 9.52148 35.5119C9.52148 34.5712 10.0338 33.7505 10.7949 33.3126L6.67127 21.8036C6.77778 21.7712 6.88331 21.7377 6.98851 21.7009L7.78681 22.4989L11.5586 33.0271C11.719 32.9947 11.885 32.9774 12.0544 32.9774C13.3181 32.9774 14.3656 33.9029 14.5565 35.1129L18.4794 34.9345C18.4946 35.2102 18.5259 35.4816 18.5724 35.7476L14.5536 35.9303C14.472 36.4201 14.2498 36.8624 13.9301 37.2148L24.0344 49.1649L25.4781 49.9986L26.5361 49.3877L37.2702 34.8728C36.9922 34.582 36.7828 34.2251 36.6683 33.8272L32.4868 34.41C32.4817 34.1365 32.4611 33.864 32.4243 33.5937L36.5707 33.0163C36.6261 31.6669 37.7377 30.5889 39.1015 30.5889C39.3111 30.5889 39.5141 30.6148 39.7085 30.6624L43.3025 22.3659L43.9922 21.6771C44.1358 21.7279 44.2814 21.7755 44.428 21.8188L40.4582 30.9825C41.1657 31.4323 41.6349 32.2227 41.6349 33.1223C41.6349 33.5245 41.5412 33.9051 41.3735 34.2435L45.8176 37.5284V21.8674C46.0034 21.8826 46.1918 21.8912 46.3819 21.8912C47.0987 21.8912 47.7897 21.7798 48.4384 21.5744ZM4.66759 10.4169C7.24575 10.4169 9.33561 12.5069 9.33561 15.0847C9.33561 15.6642 9.22965 16.2189 9.03697 16.7303L22.932 30.6256C23.664 30.1488 24.5387 29.8709 25.4781 29.8709C26.4174 29.8709 27.2913 30.1488 28.0237 30.6256L41.9872 16.6622C41.8102 16.1702 41.7139 15.6394 41.7139 15.0847C41.7139 12.5069 43.8037 10.4169 46.3819 10.4169C48.9596 10.4169 51.0495 12.5069 51.0495 15.0847C51.0495 17.6635 48.9596 19.7525 46.3819 19.7525C45.3197 19.7525 44.3401 19.3978 43.5558 18.7999L29.7347 32.6206C29.9987 33.2055 30.1457 33.8554 30.1457 34.5387C30.1457 37.1165 28.0558 39.2065 25.4781 39.2065C22.8999 39.2065 20.8101 37.1165 20.8101 34.5387C20.8101 33.8554 20.9567 33.2055 21.2206 32.6206L7.44005 18.8399C6.66457 19.414 5.70582 19.7525 4.66759 19.7525C2.08943 19.7525 0 17.6635 0 15.0847C0 12.5069 2.08943 10.4169 4.66759 10.4169ZM5.80421 38.6367L15.3083 44.1241L15.3067 44.1263L21.9437 47.9583L13.2902 37.723C12.9244 37.9274 12.5034 38.0442 12.0544 38.0442C11.1839 38.0442 10.4156 37.6041 9.9595 36.9359L5.80421 38.6367ZM28.3122 48.3626L35.6486 44.1263L35.6475 44.1241L45.5955 38.3804L40.8987 34.9074C40.44 35.3702 39.8039 35.6557 39.1015 35.6557C38.6762 35.6557 38.2758 35.5508 37.9239 35.3659C34.7233 39.6996 31.5179 44.0311 28.3122 48.3626ZM25.8873 3.24919V13.6066C27.0962 13.7807 28.0709 14.6803 28.3574 15.8491L39.4095 14.3537C39.3845 14.5938 39.3719 14.8381 39.3719 15.0847L39.3723 15.1831L28.441 16.6622C28.3924 18.1198 27.3002 19.3124 25.8873 19.5168V27.5408C25.7513 27.5332 25.615 27.5289 25.4781 27.5289C25.3408 27.5289 25.2044 27.5332 25.068 27.5408V19.5222C23.6167 19.334 22.4924 18.1036 22.4708 16.6049L11.676 14.9528C11.6705 14.6695 11.6485 14.3894 11.6105 14.1148L22.5705 15.7918C22.8775 14.637 23.8591 13.7569 25.068 13.6001V3.24919L15.3067 8.8858L15.3083 8.88688L10.5389 11.6409C10.0823 10.8645 9.47671 10.1876 8.76157 9.64808L13.9977 6.62488H14.0028L25.4781 -7.62939e-06L26.1281 0.375187L36.953 6.62488H36.958L42.2478 9.67836C41.5373 10.2233 40.9372 10.9034 40.487 11.6819L35.6475 8.88688L35.6486 8.8858L25.8873 3.24919Z" fill="white"/>
</mask>
<g mask="url(#mask0_199_39)">
<path d="M48.4385 21.5744V39.758L36.958 46.3872H36.953L25.4781 53.011L14.0028 46.3872H13.9977L2.51728 39.758V21.5441C3.19307 21.769 3.91622 21.8912 4.66759 21.8912C4.82599 21.8912 4.98267 21.8847 5.13858 21.8739V38.029L9.61522 36.1952C9.55402 35.9779 9.52148 35.7487 9.52148 35.5119C9.52148 34.5712 10.0338 33.7505 10.7949 33.3126L6.67127 21.8036C6.77778 21.7712 6.88331 21.7377 6.98852 21.7009L7.78681 22.4989L11.5586 33.0271C11.719 32.9947 11.885 32.9774 12.0544 32.9774C13.3181 32.9774 14.3656 33.9029 14.5565 35.1129L18.4794 34.9345C18.4946 35.2102 18.5259 35.4816 18.5724 35.7476L14.5536 35.9303C14.472 36.4201 14.2498 36.8624 13.9301 37.2148L24.0344 49.1649L25.4781 49.9986L26.5361 49.3877L37.2702 34.8728C36.9922 34.582 36.7828 34.2252 36.6683 33.8272L32.4868 34.41C32.4817 34.1365 32.4611 33.864 32.4243 33.5937L36.5707 33.0163C36.6261 31.6669 37.7377 30.5889 39.1015 30.5889C39.3111 30.5889 39.5142 30.6148 39.7085 30.6624L43.3025 22.3659L43.9922 21.6771C44.1358 21.7279 44.2814 21.7755 44.4281 21.8188L40.4582 30.9825C41.1657 31.4323 41.6349 32.2227 41.6349 33.1223C41.6349 33.5245 41.5412 33.9051 41.3735 34.2435L45.8176 37.5284V21.8674C46.0035 21.8826 46.1918 21.8912 46.3819 21.8912C47.0987 21.8912 47.7897 21.7798 48.4385 21.5744ZM4.66759 10.4169C7.24575 10.4169 9.33561 12.5069 9.33561 15.0847C9.33561 15.6642 9.22965 16.2189 9.03697 16.7303L22.932 30.6256C23.6641 30.1488 24.5387 29.8709 25.4781 29.8709C26.4174 29.8709 27.2913 30.1488 28.0237 30.6256L41.9872 16.6622C41.8102 16.1702 41.7139 15.6394 41.7139 15.0847C41.7139 12.5069 43.8037 10.4169 46.3819 10.4169C48.9596 10.4169 51.0495 12.5069 51.0495 15.0847C51.0495 17.6635 48.9596 19.7525 46.3819 19.7525C45.3197 19.7525 44.3401 19.3978 43.5558 18.7999L29.7347 32.6206C29.9987 33.2055 30.1457 33.8554 30.1457 34.5387C30.1457 37.1165 28.0558 39.2065 25.4781 39.2065C22.8999 39.2065 20.8101 37.1165 20.8101 34.5387C20.8101 33.8554 20.9567 33.2055 21.2206 32.6206L7.44005 18.8399C6.66457 19.414 5.70582 19.7525 4.66759 19.7525C2.08943 19.7525 0 17.6635 0 15.0847C0 12.5069 2.08943 10.4169 4.66759 10.4169ZM5.80421 38.6367L15.3083 44.1241L15.3067 44.1263L21.9437 47.9583L13.2902 37.723C12.9244 37.9274 12.5034 38.0442 12.0544 38.0442C11.1839 38.0442 10.4156 37.6041 9.9595 36.9359L5.80421 38.6367ZM28.3122 48.3626L35.6486 44.1263L35.6475 44.1241L45.5955 38.3804L40.8987 34.9074C40.44 35.3702 39.8039 35.6557 39.1015 35.6557C38.6762 35.6557 38.2758 35.5508 37.9239 35.3659C34.7233 39.6996 31.5179 44.0311 28.3122 48.3626ZM25.8873 3.24919V13.6066C27.0962 13.7807 28.071 14.6803 28.3574 15.8491L39.4095 14.3537C39.3845 14.5938 39.3719 14.8381 39.3719 15.0847L39.3723 15.1831L28.441 16.6622C28.3924 18.1198 27.3002 19.3124 25.8873 19.5168V27.5408C25.7513 27.5332 25.615 27.5289 25.4781 27.5289C25.3408 27.5289 25.2044 27.5332 25.068 27.5408V19.5222C23.6167 19.334 22.4924 18.1036 22.4708 16.6049L11.676 14.9528C11.6705 14.6695 11.6485 14.3894 11.6105 14.1148L22.5705 15.7918C22.8775 14.637 23.8591 13.7569 25.068 13.6001V3.24919L15.3067 8.8858L15.3083 8.88689L10.5389 11.6409C10.0823 10.8645 9.47672 10.1876 8.76157 9.64809L13.9977 6.62488H14.0028L25.4781 -7.62939e-06L26.1281 0.375187L36.953 6.62488H36.958L42.2478 9.67836C41.5373 10.2233 40.9372 10.9034 40.487 11.6819L35.6475 8.88689L35.6486 8.8858L25.8873 3.24919Z" fill="url(#paint0_linear_199_39)"/>
</g>
<defs>
<linearGradient id="paint0_linear_199_39" x1="34.8739" y1="8.24244" x2="8.44238" y2="40.1602" gradientUnits="userSpaceOnUse">
<stop stop-color="#0EBF1D"/>
<stop offset="1" stop-color="#16A34A"/>
</linearGradient>
</defs>
</svg>
